<svg id="_x31_px" enable-background="new 0 0 24 24" height="512" viewBox="0 0 24 24" width="512" xmlns="http://www.w3.org/2000/svg"><path d="m16.5 20h-3c-.276 0-.5-.224-.5-.5s.224-.5.5-.5h3c.276 0 .5.224.5.5s-.224.5-.5.5z"/><path d="m16.5 22c-.276 0-.5-.224-.5-.5v-5c0-.276.224-.5.5-.5s.5.224.5.5v5c0 .276-.224.5-.5.5z"/><path d="m13.5 22c-.276 0-.5-.224-.5-.5v-5c0-.276.224-.5.5-.5s.5.224.5.5v5c0 .276-.224.5-.5.5z"/><path d="m8.5 23c-.276 0-.5-.224-.5-.5v-4c0-.276.224-.5.5-.5h1c.827 0 1.5.673 1.5 1.5s-.673 1.5-1.5 1.5h-.5v1.5c0 .276-.224.5-.5.5zm.5-3h.5c.276 0 .5-.224.5-.5s-.224-.5-.5-.5h-.5z"/><path d="m23.5 13.5h-10c-.276 0-.5-.224-.5-.5s.224-.5.5-.5h9.489c-.263-5.834-5.091-10.5-10.989-10.5s-10.726 4.666-10.989 10.5h9.489c.276 0 .5.224.5.5s-.224.5-.5.5h-10c-.276 0-.5-.224-.5-.5 0-6.617 5.383-12 12-12s12 5.383 12 12c0 .276-.224.5-.5.5z"/><path d="m12 15c-1.103 0-2-.897-2-2s.897-2 2-2 2 .897 2 2-.897 2-2 2zm0-3c-.551 0-1 .449-1 1s.449 1 1 1 1-.449 1-1-.449-1-1-1z"/><path d="m18.5 13.5c-.276 0-.5-.224-.5-.5 0-1.387-.463-2.696-1.34-3.787-.173-.215-.139-.53.076-.703.215-.174.53-.139.703.076 1.021 1.27 1.561 2.797 1.561 4.414 0 .276-.224.5-.5.5z"/><path d="m5.5 13.5c-.276 0-.5-.224-.5-.5 0-3.86 3.14-7 7-7 1.168 0 2.283.279 3.315.829.244.13.336.433.206.677-.13.243-.431.335-.677.206-.885-.473-1.842-.712-2.844-.712-3.309 0-6 2.691-6 6 0 .276-.224.5-.5.5z"/><path d="m12.689 12.18c-.081 0-.162-.02-.238-.061-.243-.132-.333-.435-.201-.678l2.81-5.18c.131-.243.435-.333.678-.201s.333.435.201.678l-2.81 5.18c-.09.167-.262.262-.44.262z"/><path d="m12 4c-.276 0-.5-.224-.5-.5v-2c0-.276.224-.5.5-.5s.5.224.5.5v2c0 .276-.224.5-.5.5z"/><path d="m18.72 6.78c-.128 0-.256-.049-.354-.146-.195-.195-.195-.512 0-.707l1.41-1.41c.195-.195.512-.195.707 0s.195.512 0 .707l-1.41 1.41c-.097.097-.225.146-.353.146z"/><path d="m5.28 6.78c-.128 0-.256-.049-.354-.146l-1.41-1.41c-.195-.195-.195-.512 0-.707s.512-.195.707 0l1.41 1.41c.195.195.195.512 0 .707-.097.097-.225.146-.353.146z"/></svg>