<svg id="line_icons" height="512" viewBox="0 0 74 74" width="512" xmlns="http://www.w3.org/2000/svg" data-name="line icons"><path d="m49.234 51.66a16.481 16.481 0 0 1 -16.477-16.448c0-8.741 15-31.783 15.64-32.759a1.039 1.039 0 0 1 1.674 0c.639.977 15.64 24.018 15.64 32.759a16.481 16.481 0 0 1 -16.477 16.448zm0-46.807c-3.2 5.047-14.477 23.33-14.477 30.358a14.477 14.477 0 0 0 28.954 0c0-7.027-11.276-25.311-14.477-30.357z"/><path d="m51.346 46.563a1 1 0 0 1 -.2-1.98q.291-.059.576-.135a1 1 0 1 1 .515 1.933c-.228.061-.458.115-.691.163a1.01 1.01 0 0 1 -.2.019z"/><path d="m54.9 45.135a1 1 0 0 1 -.536-1.845 9.559 9.559 0 0 0 4.366-6.7 1 1 0 1 1 1.979.287 11.559 11.559 0 0 1 -5.275 8.106 1 1 0 0 1 -.534.152z"/><path d="m32.669 72a8.517 8.517 0 0 1 -8.515-8.5c0-4.322 6.892-14.986 7.678-16.187a1 1 0 0 1 .837-.453 1 1 0 0 1 .837.453c.786 1.2 7.677 11.866 7.677 16.188a8.517 8.517 0 0 1 -8.514 8.499zm0-22.282c-2.376 3.8-6.515 10.994-6.515 13.782a6.514 6.514 0 0 0 13.029 0c0-2.789-4.139-9.984-6.514-13.782z"/><path d="m17.64 52.455a9.353 9.353 0 0 1 -9.351-9.335c0-4.77 7.642-16.594 8.514-17.927a1 1 0 0 1 .837-.453 1 1 0 0 1 .837.453c.872 1.333 8.513 13.157 8.513 17.927a9.353 9.353 0 0 1 -9.35 9.335zm0-24.858c-2.629 4.188-7.351 12.363-7.351 15.523a7.35 7.35 0 0 0 14.7 0c.001-3.16-4.72-11.335-7.349-15.52z"/></svg>