<svg id="Capa_1" enable-background="new 0 0 512 512" height="512" viewBox="0 0 512 512" width="512" xmlns="http://www.w3.org/2000/svg"><g><path d="m512 256.96v36.57c-.18 40.43-33.01 73.15-73.48 73.15h-36.23c-19.87 0-36.05-15.86-36.57-35.61-.01-.33-.01-.65-.01-.97l-11.58-36.57 5.79-36.57 5.79-36.57h109.72c20.2 0 36.57 16.37 36.57 36.57z" fill="#56c125"/><path d="m512 293.53c-.18 40.43-33.01 73.15-73.48 73.15h-36.23c-19.87 0-36.05-15.86-36.57-35.61-.01-.33-.01-.65-.01-.97l-11.58-36.57z" fill="#019a5a"/><path d="m.008 293.532c.182 40.426 33.001 73.143 73.469 73.143h255.663c20.199 0 36.574-16.374 36.574-36.573v-36.57l-135.447-14z" fill="#56c125"/><path d="m304.805 446.246h-46.805v-30h22.053l25.866-132.465 29.454 5.699z" fill="#019a5a"/><path d="m487.66 180.16v25.39c0 8.49-2.21 16.89-6.38 24.28l-15.3 27.13-15.06 26.72-26.14-14.73 6.76-11.99 23.61-41.86c1.64-2.91 2.51-6.21 2.51-9.55v-25.39c0-10.71-8.72-19.43-19.43-19.43v-30c27.25 0 49.43 22.18 49.43 49.43z" fill="#aae234"/><path d="m465.98 256.96-15.06 26.72-26.14-14.73 6.76-11.99z" fill="#56c125"/><path d="m365.71 220.39v73.14h-365.7c0-.11-.01-.22-.01-.33v-72.81z" fill="#aae234"/><path d="m279.68 300.04c-16.98 32.56-48 30.96-49.36 30.96-25.43 0-48.07-17.89-53.62-43.05l-6.83-30.99-26.77-121.37-23.48 121.37-36.62 189.29h-46.81v-30h22.05l30.82-159.29 37-191.21h30.35l119.38 179.72c2.46 3.64 4.47 7.5 6 11.49 5.37 13.93 4.99 29.45-2.11 43.08z" fill="#56c125"/><g fill="#019a5a"><path d="m112.55 293.53-29.55 152.72h-46.81v-30h22.05l23.74-122.72z"/><path d="m282.51 293.53c-.77 2.21-1.72 4.38-2.83 6.51-16.98 32.56-48 30.96-49.36 30.96-23.51 0-44.63-15.29-52.07-37.47z"/></g></g></svg>